<svg xmlns="http://www.w3.org/2000/svg" viewBox="0 0 760 480" width="760" height="480"><defs><pattern id="grid" width="28" height="28" patternUnits="userSpaceOnUse"><path d="M28 0H0v28" fill="none" stroke="#d5d7df"/></pattern></defs><rect width="760" height="480" fill="#e9eaf0"/><rect width="760" height="480" fill="url(#grid)"/><g fill="none" stroke="#a6a8b3" stroke-width="2"><path d="M48 78h130v45m461 252h70V316M58 363h88v48M640 94h70v45"/><circle cx="55" cy="79" r="4"/><circle cx="708" cy="316" r="4"/></g><rect x="126" y="118" width="584" height="273" rx="17" fill="#35363f" stroke="#858895" stroke-width="4"/><rect x="463" y="152" width="233" height="206" rx="6" fill="#52545f"/><path d="M490 171v171" stroke="#b7bac6" stroke-width="6"/><path d="M501 171v171" stroke="#b7bac6" stroke-width="6"/><path d="M512 171v171" stroke="#b7bac6" stroke-width="6"/><path d="M523 171v171" stroke="#b7bac6" stroke-width="6"/><path d="M534 171v171" stroke="#b7bac6" stroke-width="6"/><path d="M545 171v171" stroke="#b7bac6" stroke-width="6"/><path d="M556 171v171" stroke="#b7bac6" stroke-width="6"/><path d="M567 171v171" stroke="#b7bac6" stroke-width="6"/><path d="M578 171v171" stroke="#b7bac6" stroke-width="6"/><path d="M589 171v171" stroke="#b7bac6" stroke-width="6"/><path d="M600 171v171" stroke="#b7bac6" stroke-width="6"/><path d="M611 171v171" stroke="#b7bac6" stroke-width="6"/><path d="M622 171v171" stroke="#b7bac6" stroke-width="6"/><path d="M633 171v171" stroke="#b7bac6" stroke-width="6"/><path d="M644 171v171" stroke="#b7bac6" stroke-width="6"/><path d="M655 171v171" stroke="#b7bac6" stroke-width="6"/><path d="M666 171v171" stroke="#b7bac6" stroke-width="6"/><path d="M677 171v171" stroke="#b7bac6" stroke-width="6"/><path d="M688 171v171" stroke="#b7bac6" stroke-width="6"/><path d="M385 170h80v183h-80" fill="none" stroke="#baa789" stroke-width="13"/><circle cx="291" cy="251" r="113" fill="#272830" stroke="#9c9faa" stroke-width="8"/><path transform="rotate(0 291 251)" d="M291 235C327 188 359 192 367 224c-23-4-39 11-55 34z" fill="#9295a2" stroke="#c7cad5"/><path transform="rotate(45 291 251)" d="M291 235C327 188 359 192 367 224c-23-4-39 11-55 34z" fill="#9295a2" stroke="#c7cad5"/><path transform="rotate(90 291 251)" d="M291 235C327 188 359 192 367 224c-23-4-39 11-55 34z" fill="#9295a2" stroke="#c7cad5"/><path transform="rotate(135 291 251)" d="M291 235C327 188 359 192 367 224c-23-4-39 11-55 34z" fill="#9295a2" stroke="#c7cad5"/><path transform="rotate(180 291 251)" d="M291 235C327 188 359 192 367 224c-23-4-39 11-55 34z" fill="#9295a2" stroke="#c7cad5"/><path transform="rotate(225 291 251)" d="M291 235C327 188 359 192 367 224c-23-4-39 11-55 34z" fill="#9295a2" stroke="#c7cad5"/><path transform="rotate(270 291 251)" d="M291 235C327 188 359 192 367 224c-23-4-39 11-55 34z" fill="#9295a2" stroke="#c7cad5"/><path transform="rotate(315 291 251)" d="M291 235C327 188 359 192 367 224c-23-4-39 11-55 34z" fill="#9295a2" stroke="#c7cad5"/><circle cx="291" cy="251" r="31" fill="#ffb47f"/><circle cx="291" cy="251" r="13" fill="#454650"/><g fill="#c6c9d5"><circle cx="145" cy="137" r="5"/><circle cx="691" cy="137" r="5"/><circle cx="145" cy="372" r="5"/><circle cx="691" cy="372" r="5"/></g></svg>